<?xml version="1.0" encoding="UTF-8"?>
<svg id="Layer_5" xmlns="http://www.w3.org/2000/svg" version="1.1" viewBox="0 0 2560 1080">
  <!-- Generator: Adobe Illustrator 29.0.0, SVG Export Plug-In . SVG Version: 2.1.0 Build 186)  -->
  <defs>
    <style>
      .st0 {
        fill: #757575;
      }

      .st1, .st2 {
        stroke-width: 3px;
      }

      .st1, .st2, .st3, .st4, .st5, .st6, .st7 {
        fill: none;
        stroke: #f5811e;
      }

      .st1, .st3, .st4, .st5, .st6, .st7 {
        stroke-miterlimit: 10;
      }

      .st8 {
        fill: #ffcab0;
      }

      .st2 {
        stroke-linecap: round;
        stroke-linejoin: round;
      }

      .st3 {
        stroke-width: 5px;
      }

      .st9 {
        fill: #110f0b;
      }

      .st10 {
        fill: #f5811e;
      }

      .st11 {
        fill: #ffded2;
      }

      .st12 {
        fill: #997662;
      }

      .st13, .st5 {
        opacity: .3;
      }

      .st5 {
        isolation: isolate;
      }

      .st14 {
        opacity: 0;
      }

      .st6 {
        stroke-width: 1.5px;
      }

      .st7 {
        stroke-width: 10px;
      }
    </style>
  </defs>
  <rect class="st9" x="0" y="0" width="2560.1" height="1080.1"/>
  <g class="st14">
    <g>
      <circle class="st10" cx="1610.7" cy="279.5" r="2.4"/>
      <circle class="st10" cx="1627.1" cy="279.5" r="2.4"/>
      <circle class="st10" cx="1643.6" cy="279.5" r="2.4"/>
      <circle class="st10" cx="1660" cy="279.5" r="2.4"/>
      <circle class="st10" cx="1676.5" cy="279.5" r="2.4"/>
      <circle class="st10" cx="1692.9" cy="279.5" r="2.4"/>
      <circle class="st10" cx="1709.4" cy="279.5" r="2.4"/>
      <circle class="st10" cx="1725.8" cy="279.5" r="2.4"/>
      <circle class="st10" cx="1742.3" cy="279.5" r="2.4"/>
      <circle class="st10" cx="1758.7" cy="279.5" r="2.4"/>
      <circle class="st10" cx="1775.2" cy="279.5" r="2.4"/>
      <circle class="st10" cx="1791.6" cy="279.5" r="2.4"/>
      <circle class="st10" cx="1610.7" cy="295.9" r="2.4"/>
      <circle class="st10" cx="1627.1" cy="295.9" r="2.4"/>
      <circle class="st10" cx="1643.6" cy="295.9" r="2.4"/>
      <circle class="st10" cx="1660" cy="295.9" r="2.4"/>
      <circle class="st10" cx="1676.5" cy="295.9" r="2.4"/>
      <circle class="st10" cx="1692.9" cy="295.9" r="2.4"/>
      <circle class="st10" cx="1709.4" cy="295.9" r="2.4"/>
      <circle class="st10" cx="1725.8" cy="295.9" r="2.4"/>
      <circle class="st10" cx="1742.3" cy="295.9" r="2.4"/>
      <circle class="st10" cx="1758.7" cy="295.9" r="2.4"/>
      <circle class="st10" cx="1775.2" cy="295.9" r="2.4"/>
      <circle class="st10" cx="1791.6" cy="295.9" r="2.4"/>
      <circle class="st10" cx="1610.7" cy="312.4" r="2.4"/>
      <circle class="st10" cx="1627.1" cy="312.4" r="2.4"/>
      <circle class="st10" cx="1643.6" cy="312.4" r="2.4"/>
      <circle class="st10" cx="1660" cy="312.4" r="2.4"/>
      <circle class="st10" cx="1676.5" cy="312.4" r="2.4"/>
      <circle class="st10" cx="1692.9" cy="312.4" r="2.4"/>
      <circle class="st10" cx="1709.4" cy="312.4" r="2.4"/>
      <circle class="st10" cx="1725.8" cy="312.4" r="2.4"/>
      <circle class="st10" cx="1742.3" cy="312.4" r="2.4"/>
      <circle class="st10" cx="1758.7" cy="312.4" r="2.4"/>
      <circle class="st10" cx="1775.2" cy="312.4" r="2.4"/>
      <circle class="st10" cx="1791.6" cy="312.4" r="2.4"/>
      <circle class="st10" cx="1610.7" cy="328.8" r="2.4"/>
      <circle class="st10" cx="1627.1" cy="328.8" r="2.4"/>
      <circle class="st10" cx="1643.6" cy="328.8" r="2.4"/>
      <circle class="st10" cx="1660" cy="328.8" r="2.4"/>
      <circle class="st10" cx="1676.5" cy="328.8" r="2.4"/>
      <circle class="st10" cx="1692.9" cy="328.8" r="2.4"/>
      <circle class="st10" cx="1709.4" cy="328.8" r="2.4"/>
      <circle class="st10" cx="1725.8" cy="328.8" r="2.4"/>
      <circle class="st10" cx="1742.3" cy="328.8" r="2.4"/>
      <circle class="st10" cx="1758.7" cy="328.8" r="2.4"/>
      <circle class="st10" cx="1775.2" cy="328.8" r="2.4"/>
      <circle class="st10" cx="1791.6" cy="328.8" r="2.4"/>
      <circle class="st10" cx="1610.7" cy="345.3" r="2.4"/>
      <circle class="st10" cx="1627.1" cy="345.3" r="2.4"/>
      <circle class="st10" cx="1643.6" cy="345.3" r="2.4"/>
      <circle class="st10" cx="1660" cy="345.3" r="2.4"/>
      <circle class="st10" cx="1676.5" cy="345.3" r="2.4"/>
      <circle class="st10" cx="1692.9" cy="345.3" r="2.4"/>
      <circle class="st10" cx="1709.4" cy="345.3" r="2.4"/>
      <circle class="st10" cx="1725.8" cy="345.3" r="2.4"/>
      <circle class="st10" cx="1742.3" cy="345.3" r="2.4"/>
      <circle class="st10" cx="1758.7" cy="345.3" r="2.4"/>
      <circle class="st10" cx="1775.2" cy="345.3" r="2.4"/>
      <circle class="st10" cx="1791.6" cy="345.3" r="2.4"/>
      <circle class="st10" cx="1610.7" cy="361.7" r="2.4"/>
      <circle class="st10" cx="1627.1" cy="361.7" r="2.4"/>
      <circle class="st10" cx="1643.6" cy="361.7" r="2.4"/>
      <circle class="st10" cx="1660" cy="361.7" r="2.4"/>
      <circle class="st10" cx="1676.5" cy="361.7" r="2.4"/>
      <circle class="st10" cx="1692.9" cy="361.7" r="2.4"/>
      <circle class="st10" cx="1709.4" cy="361.7" r="2.4"/>
      <circle class="st10" cx="1725.8" cy="361.7" r="2.4"/>
      <circle class="st10" cx="1742.3" cy="361.7" r="2.4"/>
      <circle class="st10" cx="1758.7" cy="361.7" r="2.4"/>
      <circle class="st10" cx="1775.2" cy="361.7" r="2.4"/>
      <circle class="st10" cx="1791.6" cy="361.7" r="2.4"/>
      <circle class="st10" cx="1610.7" cy="378.2" r="2.4"/>
      <circle class="st10" cx="1627.1" cy="378.2" r="2.4"/>
      <circle class="st10" cx="1643.6" cy="378.2" r="2.4"/>
      <circle class="st10" cx="1660" cy="378.2" r="2.4"/>
      <circle class="st10" cx="1676.5" cy="378.2" r="2.4"/>
      <circle class="st10" cx="1692.9" cy="378.2" r="2.4"/>
      <circle class="st10" cx="1709.4" cy="378.2" r="2.4"/>
      <circle class="st10" cx="1725.8" cy="378.2" r="2.4"/>
      <circle class="st10" cx="1742.3" cy="378.2" r="2.4"/>
      <circle class="st10" cx="1758.7" cy="378.2" r="2.4"/>
      <circle class="st10" cx="1775.2" cy="378.2" r="2.4"/>
      <circle class="st10" cx="1791.6" cy="378.2" r="2.4"/>
    </g>
    <g>
      <circle class="st10" cx="349.6" cy="269.5" r="2.4"/>
      <circle class="st10" cx="349.6" cy="253" r="2.4"/>
      <circle class="st10" cx="349.6" cy="236.6" r="2.4"/>
      <circle class="st10" cx="349.6" cy="220.1" r="2.4"/>
      <circle class="st10" cx="349.6" cy="203.7" r="2.4"/>
      <circle class="st10" cx="349.6" cy="187.2" r="2.4"/>
      <circle class="st10" cx="349.6" cy="170.8" r="2.4"/>
      <circle class="st10" cx="349.6" cy="154.3" r="2.4"/>
      <circle class="st10" cx="349.6" cy="137.9" r="2.4"/>
      <circle class="st10" cx="349.6" cy="121.4" r="2.4"/>
      <circle class="st10" cx="349.6" cy="105" r="2.4"/>
      <circle class="st10" cx="349.6" cy="88.5" r="2.4"/>
      <circle class="st10" cx="366.1" cy="269.5" r="2.4"/>
      <circle class="st10" cx="366.1" cy="253" r="2.4"/>
      <circle class="st10" cx="366.1" cy="236.6" r="2.4"/>
      <circle class="st10" cx="366.1" cy="220.1" r="2.4"/>
      <circle class="st10" cx="366.1" cy="203.7" r="2.4"/>
      <circle class="st10" cx="366.1" cy="187.2" r="2.4"/>
      <circle class="st10" cx="366.1" cy="170.8" r="2.4"/>
      <circle class="st10" cx="366.1" cy="154.3" r="2.4"/>
      <circle class="st10" cx="366.1" cy="137.9" r="2.4"/>
      <circle class="st10" cx="366.1" cy="121.4" r="2.4"/>
      <circle class="st10" cx="366.1" cy="105" r="2.4"/>
      <circle class="st10" cx="366.1" cy="88.5" r="2.4"/>
      <circle class="st10" cx="382.5" cy="269.5" r="2.4"/>
      <circle class="st10" cx="382.5" cy="253" r="2.4"/>
      <circle class="st10" cx="382.5" cy="236.6" r="2.4"/>
      <circle class="st10" cx="382.5" cy="220.1" r="2.4"/>
      <circle class="st10" cx="382.5" cy="203.7" r="2.4"/>
      <circle class="st10" cx="382.5" cy="187.2" r="2.4"/>
      <circle class="st10" cx="382.5" cy="170.8" r="2.4"/>
      <circle class="st10" cx="382.5" cy="154.3" r="2.4"/>
      <circle class="st10" cx="382.5" cy="137.9" r="2.4"/>
      <circle class="st10" cx="382.5" cy="121.4" r="2.4"/>
      <circle class="st10" cx="382.5" cy="105" r="2.4"/>
      <circle class="st10" cx="382.5" cy="88.5" r="2.4"/>
      <circle class="st10" cx="399" cy="269.5" r="2.4"/>
      <circle class="st10" cx="399" cy="253" r="2.4"/>
      <circle class="st10" cx="399" cy="236.6" r="2.4"/>
      <circle class="st10" cx="399" cy="220.1" r="2.4"/>
      <circle class="st10" cx="399" cy="203.7" r="2.4"/>
      <circle class="st10" cx="399" cy="187.2" r="2.4"/>
      <circle class="st10" cx="399" cy="170.8" r="2.4"/>
      <circle class="st10" cx="399" cy="154.3" r="2.4"/>
      <circle class="st10" cx="399" cy="137.9" r="2.4"/>
      <circle class="st10" cx="399" cy="121.4" r="2.4"/>
      <circle class="st10" cx="399" cy="105" r="2.4"/>
      <circle class="st10" cx="399" cy="88.5" r="2.4"/>
      <circle class="st10" cx="415.4" cy="269.5" r="2.4"/>
      <circle class="st10" cx="415.4" cy="253" r="2.4"/>
      <circle class="st10" cx="415.4" cy="236.6" r="2.4"/>
      <circle class="st10" cx="415.4" cy="220.1" r="2.4"/>
      <circle class="st10" cx="415.4" cy="203.7" r="2.4"/>
      <circle class="st10" cx="415.4" cy="187.2" r="2.4"/>
      <circle class="st10" cx="415.4" cy="170.8" r="2.4"/>
      <circle class="st10" cx="415.4" cy="154.3" r="2.4"/>
      <circle class="st10" cx="415.4" cy="137.9" r="2.4"/>
      <circle class="st10" cx="415.4" cy="121.4" r="2.4"/>
      <circle class="st10" cx="415.4" cy="105" r="2.4"/>
      <circle class="st10" cx="415.4" cy="88.5" r="2.4"/>
      <circle class="st10" cx="431.9" cy="269.5" r="2.4"/>
      <circle class="st10" cx="431.9" cy="253" r="2.4"/>
      <circle class="st10" cx="431.9" cy="236.6" r="2.4"/>
      <circle class="st10" cx="431.9" cy="220.1" r="2.4"/>
      <circle class="st10" cx="431.9" cy="203.7" r="2.4"/>
      <circle class="st10" cx="431.9" cy="187.2" r="2.4"/>
      <circle class="st10" cx="431.9" cy="170.8" r="2.4"/>
      <circle class="st10" cx="431.9" cy="154.3" r="2.4"/>
      <circle class="st10" cx="431.9" cy="137.9" r="2.4"/>
      <circle class="st10" cx="431.9" cy="121.4" r="2.4"/>
      <circle class="st10" cx="431.9" cy="105" r="2.4"/>
      <circle class="st10" cx="431.9" cy="88.5" r="2.4"/>
      <circle class="st10" cx="448.3" cy="269.5" r="2.4"/>
      <circle class="st10" cx="448.3" cy="253" r="2.4"/>
      <circle class="st10" cx="448.3" cy="236.6" r="2.4"/>
      <circle class="st10" cx="448.3" cy="220.1" r="2.4"/>
      <circle class="st10" cx="448.3" cy="203.7" r="2.4"/>
      <circle class="st10" cx="448.3" cy="187.2" r="2.4"/>
      <circle class="st10" cx="448.3" cy="170.8" r="2.4"/>
      <circle class="st10" cx="448.3" cy="154.3" r="2.4"/>
      <circle class="st10" cx="448.3" cy="137.9" r="2.4"/>
      <circle class="st10" cx="448.3" cy="121.4" r="2.4"/>
      <circle class="st10" cx="448.3" cy="105" r="2.4"/>
      <circle class="st10" cx="448.3" cy="88.5" r="2.4"/>
    </g>
    <g>
      <circle class="st10" cx="2159.3" cy="904.6" r="7.7"/>
      <circle class="st10" cx="2159.3" cy="852.2" r="7.7"/>
      <circle class="st10" cx="2159.3" cy="799.7" r="7.7"/>
      <circle class="st10" cx="2159.3" cy="747.3" r="7.7"/>
      <circle class="st10" cx="2211.7" cy="904.6" r="7.7"/>
      <circle class="st10" cx="2211.7" cy="852.2" r="7.7"/>
      <circle class="st10" cx="2211.7" cy="799.7" r="7.7"/>
      <circle class="st10" cx="2211.7" cy="747.3" r="7.7"/>
      <circle class="st10" cx="2264.2" cy="904.6" r="7.7"/>
      <circle class="st10" cx="2264.2" cy="852.2" r="7.7"/>
      <circle class="st10" cx="2264.2" cy="799.7" r="7.7"/>
      <circle class="st10" cx="2264.2" cy="747.3" r="7.7"/>
      <circle class="st10" cx="2316.6" cy="904.6" r="7.7"/>
      <circle class="st10" cx="2316.6" cy="852.2" r="7.7"/>
      <circle class="st10" cx="2316.6" cy="799.7" r="7.7"/>
      <circle class="st10" cx="2316.6" cy="747.3" r="7.7"/>
    </g>
    <g>
      <path class="st10" d="M1023.8,839.2c.9,0,1.6.7,1.6,1.6s-.7,1.6-1.6,1.6-1.6-.7-1.6-1.6.7-1.6,1.6-1.6h0Z"/>
      <path class="st10" d="M1023.8,828.7c.9,0,1.6.7,1.6,1.6s-.7,1.6-1.6,1.6-1.6-.7-1.6-1.6.7-1.6,1.6-1.6h0Z"/>
      <path class="st10" d="M1023.8,818.1c.9,0,1.6.7,1.6,1.6s-.7,1.6-1.6,1.6-1.6-.7-1.6-1.6.7-1.6,1.6-1.6h0Z"/>
      <path class="st10" d="M1023.8,807.6c.9,0,1.6.7,1.6,1.6s-.7,1.6-1.6,1.6-1.6-.7-1.6-1.6.7-1.6,1.6-1.6h0Z"/>
      <path class="st10" d="M1023.8,797c.9,0,1.6.7,1.6,1.6s-.7,1.6-1.6,1.6-1.6-.7-1.6-1.6.7-1.6,1.6-1.6h0Z"/>
      <path class="st10" d="M1023.8,786.6c.9,0,1.6.7,1.6,1.6s-.7,1.6-1.6,1.6-1.6-.7-1.6-1.6.7-1.6,1.6-1.6h0Z"/>
      <circle class="st10" cx="1034.3" cy="840.8" r="1.6"/>
      <circle class="st10" cx="1034.3" cy="830.3" r="1.6"/>
      <circle class="st10" cx="1034.3" cy="819.7" r="1.6"/>
      <circle class="st10" cx="1034.3" cy="809.2" r="1.6"/>
      <circle class="st10" cx="1034.3" cy="798.6" r="1.6"/>
      <circle class="st10" cx="1034.3" cy="788.2" r="1.6"/>
      <circle class="st10" cx="1044.8" cy="840.8" r="1.6"/>
      <circle class="st10" cx="1044.8" cy="830.3" r="1.6"/>
      <circle class="st10" cx="1044.8" cy="819.7" r="1.6"/>
      <circle class="st10" cx="1044.8" cy="809.2" r="1.6"/>
      <circle class="st10" cx="1044.8" cy="798.6" r="1.6"/>
      <circle class="st10" cx="1044.8" cy="788.2" r="1.6"/>
      <circle class="st10" cx="1055.3" cy="840.8" r="1.6"/>
      <circle class="st10" cx="1055.3" cy="830.3" r="1.6"/>
      <circle class="st10" cx="1055.3" cy="819.7" r="1.6"/>
      <circle class="st10" cx="1055.3" cy="809.2" r="1.6"/>
      <circle class="st10" cx="1055.3" cy="798.6" r="1.6"/>
      <circle class="st10" cx="1055.3" cy="788.2" r="1.6"/>
      <circle class="st10" cx="1065.9" cy="840.8" r="1.6"/>
      <circle class="st10" cx="1065.9" cy="830.3" r="1.6"/>
      <circle class="st10" cx="1065.9" cy="819.7" r="1.6"/>
      <circle class="st10" cx="1065.9" cy="809.2" r="1.6"/>
      <circle class="st10" cx="1065.9" cy="798.6" r="1.6"/>
      <circle class="st10" cx="1065.9" cy="788.2" r="1.6"/>
      <circle class="st10" cx="1076.4" cy="840.8" r="1.6"/>
      <circle class="st10" cx="1076.4" cy="830.3" r="1.6"/>
      <circle class="st10" cx="1076.4" cy="819.7" r="1.6"/>
      <circle class="st10" cx="1076.4" cy="809.2" r="1.6"/>
      <circle class="st10" cx="1076.4" cy="798.6" r="1.6"/>
      <circle class="st10" cx="1076.4" cy="788.2" r="1.6"/>
      <circle class="st10" cx="1086.9" cy="840.8" r="1.6"/>
      <circle class="st10" cx="1086.9" cy="830.3" r="1.6"/>
      <circle class="st10" cx="1086.9" cy="819.7" r="1.6"/>
      <circle class="st10" cx="1086.9" cy="809.2" r="1.6"/>
      <circle class="st10" cx="1086.9" cy="798.6" r="1.6"/>
      <circle class="st10" cx="1086.9" cy="788.2" r="1.6"/>
    </g>
    <g>
      <path class="st10" d="M746.2,378.8c-46.2,0-89.6-18-122.2-50.6-32.6-32.6-50.6-76-50.6-122.2s18-89.6,50.6-122.2,76-50.6,122.2-50.6,89.6,18,122.2,50.6c32.6,32.6,50.6,76,50.6,122.2s-18,89.6-50.6,122.2-75.9,50.6-122.2,50.6ZM746.2,34.2c-94.8,0-171.9,77.1-171.9,171.9s77.2,171.9,171.9,171.9,171.9-77.1,171.9-171.9-77.1-171.9-171.9-171.9h0Z"/>
      <path class="st10" d="M746.2,357.2c-83.4,0-151.2-67.8-151.2-151.2s67.9-151.1,151.2-151.1,151.2,67.8,151.2,151.2-67.8,151.1-151.2,151.1ZM746.2,55.8c-82.9,0-150.3,67.4-150.3,150.3s67.4,150.3,150.3,150.3,150.4-67.4,150.4-150.3-67.5-150.3-150.4-150.3h0Z"/>
      <path class="st10" d="M746.2,335.7c-71.5,0-129.7-58.2-129.7-129.7s58.3-129.6,129.7-129.6,129.7,58.2,129.7,129.7-58.2,129.6-129.7,129.6ZM746.2,77.2c-71,0-128.8,57.8-128.8,128.8s57.8,128.8,128.8,128.8,128.8-57.8,128.8-128.8-57.7-128.8-128.8-128.8h0Z"/>
      <path class="st10" d="M746.2,314.2c-59.6,0-108.1-48.5-108.1-108.1s48.5-108.1,108.1-108.1,108.1,48.5,108.1,108.1-48.4,108.1-108.1,108.1ZM746.2,98.8c-59.1,0-107.2,48.1-107.2,107.2s48.1,107.2,107.2,107.2,107.2-48.1,107.2-107.2-48-107.2-107.2-107.2h0Z"/>
      <path class="st10" d="M746.2,292.7c-47.7,0-86.6-38.9-86.6-86.6s38.9-86.6,86.6-86.6,86.6,38.9,86.6,86.6c0,47.7-38.8,86.6-86.6,86.6ZM746.2,120.3c-47.3,0-85.8,38.4-85.8,85.8s38.4,85.8,85.8,85.8,85.8-38.4,85.8-85.8-38.5-85.8-85.8-85.8h0Z"/>
    </g>
    <g>
      <path class="st10" d="M1948.3,882c-30,0-58.2-11.7-79.4-32.9s-32.9-49.4-32.9-79.4,11.7-58.2,32.9-79.4c21.2-21.2,49.4-32.9,79.4-32.9s58.2,11.7,79.4,32.9,32.9,49.4,32.9,79.4-11.7,58.2-32.9,79.4-49.4,32.9-79.4,32.9ZM1948.3,658c-61.6,0-111.7,50.1-111.7,111.7s50.1,111.7,111.7,111.7,111.7-50.1,111.7-111.7-50.1-111.7-111.7-111.7Z"/>
      <path class="st10" d="M1948.3,868c-54.2,0-98.3-44.1-98.3-98.3s44.1-98.3,98.3-98.3,98.3,44.1,98.3,98.3-44.1,98.3-98.3,98.3ZM1948.3,672c-53.9,0-97.7,43.8-97.7,97.7s43.8,97.7,97.7,97.7,97.7-43.8,97.7-97.7-43.8-97.7-97.7-97.7Z"/>
      <path class="st10" d="M1948.3,854c-46.5,0-84.3-37.8-84.3-84.3s37.8-84.3,84.3-84.3,84.3,37.8,84.3,84.3-37.8,84.3-84.3,84.3ZM1948.3,686c-46.2,0-83.7,37.6-83.7,83.7s37.6,83.7,83.7,83.7,83.7-37.6,83.7-83.7-37.5-83.7-83.7-83.7Z"/>
      <path class="st10" d="M1948.3,840c-38.8,0-70.3-31.5-70.3-70.3s31.5-70.3,70.3-70.3,70.3,31.5,70.3,70.3-31.5,70.3-70.3,70.3ZM1948.3,700c-38.4,0-69.7,31.3-69.7,69.7s31.3,69.7,69.7,69.7,69.7-31.3,69.7-69.7-31.3-69.7-69.7-69.7Z"/>
      <path class="st10" d="M1948.3,826c-31,0-56.3-25.2-56.3-56.3s25.2-56.3,56.3-56.3,56.3,25.2,56.3,56.3-25.3,56.3-56.3,56.3ZM1948.3,714c-30.7,0-55.7,25-55.7,55.7s25,55.7,55.7,55.7,55.7-25,55.7-55.7-25-55.7-55.7-55.7Z"/>
    </g>
    <g>
      <line class="st2" x1="1693.4" y1="831.3" x2="1678.1" y2="817"/>
      <line class="st2" x1="1678.6" y1="831.7" x2="1692.9" y2="816.5"/>
    </g>
    <g>
      <line class="st2" x1="954.8" y1="321.3" x2="933" y2="300.8"/>
      <line class="st2" x1="933.6" y1="322" x2="954.2" y2="300.1"/>
    </g>
    <g>
      <line class="st2" x1="1534.7" y1="810.4" x2="1519.5" y2="796.1"/>
      <line class="st2" x1="1520" y1="810.9" x2="1534.3" y2="795.6"/>
    </g>
    <polygon class="st2" points="1806.7 854.2 1796.2 836 1785.7 854.2 1775.3 872.3 1796.2 872.3 1817.2 872.3 1806.7 854.2"/>
    <polygon class="st2" points="1616.6 769.6 1622 749.3 1601.8 754.8 1581.5 760.2 1596.4 775 1611.2 789.9 1616.6 769.6"/>
    <polygon class="st2" points="1747.4 216.6 1751 202.8 1737.4 206.6 1723.6 210.2 1733.7 220.3 1743.7 230.4 1747.4 216.6"/>
    <polygon class="st2" points="1038.6 650.4 1056.8 639.9 1038.6 629.4 1020.3 618.9 1020.5 639.9 1020.5 660.9 1038.6 650.4"/>
    <path class="st2" d="M1761.8,789.9c0,8.8-7.1,15.9-15.9,15.9s-15.9-7.1-15.9-15.9,7.1-15.9,15.9-15.9,15.9,7.1,15.9,15.9Z"/>
    <path class="st2" d="M1687.5,991.3c0-8.8,7.1-15.9,15.9-15.9s15.9,7.1,15.9,15.9"/>
    <path class="st2" d="M1520,862.1c0-8.8,7.1-15.9,15.8-15.9s15.8,7.1,15.8,15.9"/>
    <path class="st2" d="M773,263.8c-8.5-8.5-8.5-22.2,0-30.5,8.4-8.4,22.1-8.4,30.5.1"/>
    <path class="st2" d="M1708.7,753.4c-8.8,0-15.9-7.1-15.9-15.8s7.1-15.8,15.9-15.8"/>
    <rect class="st2" x="1634.8" y="872.3" width="31.7" height="31.7"/>
    <g>
      <path class="st2" d="M1383.5,1030.8c-11.2,0-9.3-19.8-23.5-19.8"/>
      <path class="st2" d="M1430.6,1030.8c-11.2,0-9.3-19.8-23.5-19.8"/>
      <path class="st2" d="M1383.5,1030.8c11.2,0,9.3-19.8,23.5-19.8"/>
      <path class="st2" d="M1454.1,1011"/>
      <path class="st2" d="M1430.6,1030.8c11.2,0,9.3-19.8,23.5-19.8"/>
    </g>
    <g>
      <path class="st2" d="M1729.1,915.9c0,6.9-12.3,5.7-12.3,14.5"/>
      <path class="st2" d="M1729.1,886.9c0,6.9-12.3,5.7-12.3,14.5"/>
      <path class="st2" d="M1729.1,915.9c0-6.9-12.3-5.7-12.3-14.5"/>
      <path class="st2" d="M1716.9,872.3"/>
      <path class="st2" d="M1729.1,886.9c0-6.9-12.3-5.7-12.3-14.5"/>
    </g>
    <line class="st2" x1="1044.8" y1="987.1" x2="1080.8" y2="987.1"/>
    <line class="st2" x1="1523.2" y1="750.2" x2="1548.6" y2="724.8"/>
    <polygon class="st5" points="1829.5 867.5 1819 849.3 1808.6 867.5 1798.1 885.7 1819.1 885.7 1840 885.7 1829.5 867.5"/>
    <polygon class="st5" points="1639.4 783 1644.9 762.7 1624.6 768.1 1604.4 773.6 1619.2 788.4 1634 803.2 1639.4 783"/>
    <polygon class="st2" points="919.3 371.8 928.5 337.4 894.1 346.6 859.6 355.9 884.9 381.1 910.1 406.3 919.3 371.8"/>
    <polygon class="st5" points="958.1 394.5 967.3 360.1 932.9 369.3 898.5 378.6 923.6 403.8 948.9 429 958.1 394.5"/>
    <polygon class="st5" points="1049.9 666 1068.1 655.5 1049.9 645 1031.8 634.6 1031.8 655.5 1031.8 676.5 1049.9 666"/>
    <path class="st5" d="M1784.6,803.2c0,8.8-7.1,15.9-15.9,15.9s-15.9-7.1-15.9-15.9,7.1-15.9,15.9-15.9,15.9,7.1,15.9,15.9Z"/>
    <path class="st5" d="M1710.3,1004.7c0-8.8,7.1-15.9,15.9-15.9s15.9,7.1,15.9,15.9"/>
    <path class="st5" d="M1542.9,875.5c0-8.8,7.1-15.9,15.8-15.9s15.8,7.1,15.8,15.9"/>
    <path class="st5" d="M1731.6,766.7c-8.8,0-15.9-7.1-15.9-15.8s7.1-15.8,15.9-15.8"/>
    <rect class="st5" x="1657.6" y="885.7" width="31.7" height="31.7"/>
    <g class="st13">
      <path class="st4" d="M1383.5,1060c-11.2,0-9.3-19.8-23.5-19.8"/>
      <path class="st4" d="M1430.6,1060c-11.2,0-9.3-19.8-23.5-19.8"/>
      <path class="st4" d="M1383.5,1060c11.2,0,9.3-19.8,23.5-19.8"/>
      <path class="st4" d="M1454.1,1040.1"/>
      <path class="st4" d="M1430.6,1060c11.2,0,9.3-19.8,23.5-19.8"/>
    </g>
    <g class="st13">
      <path class="st4" d="M1751.9,929.3c0,6.9-12.3,5.7-12.3,14.5"/>
      <path class="st4" d="M1751.9,900.2c0,6.9-12.3,5.7-12.3,14.5"/>
      <path class="st4" d="M1751.9,929.3c0-6.9-12.3-5.7-12.3-14.5"/>
      <path class="st4" d="M1739.7,885.7"/>
      <path class="st4" d="M1751.9,900.2c0-6.9-12.3-5.7-12.3-14.5"/>
    </g>
    <line class="st5" x1="1067.6" y1="1000.4" x2="1103.6" y2="1000.4"/>
    <line class="st5" x1="1546" y1="763.6" x2="1571.4" y2="738.2"/>
    <path class="st2" d="M1775.3,988.7c-2.9,1.8-6.8,1-8.6-2-1.8-2.9-1-6.8,2-8.6,2.9-1.8,6.8-1,8.6,2,1.8,2.9.9,6.7-2,8.6Z"/>
    <path class="st2" d="M1613.6,844.4c-2.9,1.8-6.8,1-8.6-2-1.8-2.9-1-6.8,2-8.6,2.9-1.8,6.8-1,8.6,2,1.8,2.9.9,6.8-2,8.6Z"/>
    <g>
      <line class="st2" x1="2057" y1="307.3" x2="2032.4" y2="333.5"/>
      <line class="st2" x1="2057.8" y1="332.7" x2="2031.6" y2="308.1"/>
    </g>
    <polygon class="st2" points="1986.9 138.9 1952 129.6 1961.4 164.4 1970.8 199.2 1996.2 173.7 2021.7 148.2 1986.9 138.9"/>
    <polygon class="st2" points="2386 164.4 2367.9 133.1 2350 164.4 2331.9 195.6 2368 195.6 2404 195.6 2386 164.4"/>
    <path class="st2" d="M2150.6,426.4c-15.1,0-27.4-12.2-27.4-27.2s12.2-27.2,27.4-27.2"/>
    <g>
      <path class="st2" d="M2440.5,350.3c0,11.9-21.1,9.8-21.1,25"/>
      <path class="st2" d="M2440.5,300.3c0,11.9-21.1,9.8-21.1,25"/>
      <path class="st2" d="M2440.5,350.3c0-11.9-21.1-9.8-21.1-25"/>
      <path class="st2" d="M2419.4,275.3"/>
      <path class="st2" d="M2440.5,300.3c0-11.9-21.1-9.8-21.1-25"/>
    </g>
    <line class="st2" x1="2335.7" y1="342.7" x2="2335.7" y2="281"/>
    <line class="st2" x1="1953.5" y1="299.5" x2="1909.9" y2="255.9"/>
    <polygon class="st5" points="2009.8 99.7 1975 90.3 1984.4 125.2 1993.7 160 2019.2 134.5 2044.7 109 2009.8 99.7"/>
    <polygon class="st5" points="2409 125.1 2390.9 93.9 2372.9 125.2 2354.9 156.4 2391 156.4 2427 156.4 2409 125.1"/>
    <path class="st5" d="M2155.3,399.2c-15.1,0-27.4-12.2-27.4-27.2s12.2-27.2,27.4-27.2"/>
    <g class="st13">
      <path class="st4" d="M2463.4,352.5c0,11.9-21.1,9.8-21.1,25"/>
      <path class="st4" d="M2463.4,302.5c0,11.9-21.1,9.8-21.1,25"/>
      <path class="st4" d="M2463.4,352.5c0-11.9-21.1-9.8-21.1-25"/>
      <path class="st4" d="M2442.4,277.5"/>
      <path class="st4" d="M2463.4,302.5c0-11.9-21.1-9.8-21.1-25"/>
    </g>
    <line class="st5" x1="2358.6" y1="303.5" x2="2358.6" y2="241.8"/>
    <line class="st5" x1="1976.5" y1="260.2" x2="1932.9" y2="216.6"/>
    <path class="st2" d="M2115.5,144.1c3.2,5,1.7,11.7-3.4,14.9-5,3.2-11.7,1.7-14.9-3.4-3.2-5-1.7-11.7,3.4-14.9,5-3.1,11.7-1.6,14.9,3.4Z"/>
    <path class="st10" d="M946.2,966.8l-20.8-.9c4.7,6.8,9.4,13.5,14.1,20.2l18.5.5c-4-6.5-7.9-13.1-11.8-19.8Z"/>
    <path class="st10" d="M828.1,1029.1l-20.8-.9c4.7,6.8,9.4,13.5,14.1,20.2l18.5.5c-3.9-6.6-7.8-13.2-11.8-19.8h0Z"/>
    <path class="st10" d="M1470.2,971.4l-20.8-.9c4.7,6.8,9.4,13.5,14.1,20.2l18.5.5c-3.9-6.5-7.9-13.1-11.8-19.8h0Z"/>
    <path class="st10" d="M873.1,906.1c.4.8.8,1.5,1.1,2.3l1.4-2.5c-.8,0-1.7,0-2.5.2Z"/>
    <path class="st10" d="M926,920.5c-.3.2-.6.4-.9.6.6,2.4,1.3,4.8,1.9,7.2,4,0,7.9.2,11.9.2l-1.6-6.1-11.3-1.9h0Z"/>
    <path class="st10" d="M1046.4,964.4l11.8-17.6c-10.9-1.6-21.8-3.3-32.7-4.9l-10.2,12.8,31.1,9.7h0Z"/>
    <path class="st10" d="M835.1,825.5c-1.5-1-3.1-2.1-4.6-3.2l-6.1,3.6,2.1,7.7,9.1-5.6-.5-2.5Z"/>
    <polygon class="st10" points="945.9 890.2 945.4 890.6 945.8 890.6 945.9 890.2"/>
    <path class="st10" d="M910.5,808.2c3.5,5.2,7.1,10.4,10.6,15.6l.5-19.9-9.3,1.6c-.5.9-1.1,1.8-1.8,2.7h0Z"/>
    <path class="st10" d="M1038.8,921l16.4-12.4-23.8-15.3c-.4,3.3-.8,6.7-1.2,10l8.6,17.7Z"/>
    <path class="st10" d="M891.2,948.6l5,3.6,5.9-5.6c-3.6.7-7.2,1.4-10.9,2Z"/>
    <path class="st10" d="M846.6,953.8c1.6,1.8,3.1,3.6,4.7,5.4l10.9-17-7-7.1-8.6,18.7h0Z"/>
    <path class="st10" d="M993.2,880.9c-5,.9-10,1.8-14.9,2.7l19.4,38,20.5-5.2-25-35.5Z"/>
    <path class="st10" d="M996,839.1c-4.1.2-8.3.4-12.4.6l8.8,8.1,3.6-8.7h0Z"/>
    <path class="st10" d="M799.2,843.6l.3-2.8-5.8-12.6c-7.4,9-14.8,17.9-22.2,26.8l.6,1.2c4.4,1.5,8.7,2.9,13.1,4.4l14-17h0Z"/>
    <path class="st10" d="M1059.6,1049.6c-4.8-8.3-9.7-16.5-14.4-24.7l-32.2-1.7c-7,9.2-14.1,18.5-21.2,27.8,22.7-.4,45.3-.9,67.8-1.4Z"/>
    <path class="st10" d="M968.5,699.4c7.1-8.8,14.1-17.6,21.1-26.3l-10.6-19.6c-12.6,2.7-25.4,5.5-38.2,8.2,9.3,12.6,18.5,25.2,27.7,37.7h0Z"/>
    <path class="st10" d="M835.9,884.9c2.6-1.9,5.2-3.7,7.7-5.6l-.5-10.8c-3.3-2-6.6-4.1-9.9-6.2.9,7.6,1.8,15.2,2.7,22.6Z"/>
    <path class="st10" d="M766.8,883.4c-8.8,2.5-17.6,4.9-26.4,7.4,7.6,3.9,15.3,7.8,23,11.7l3.4-19.1h0Z"/>
    <path class="st10" d="M1103.8,972l-2.6-34.6-7.9-10.6-14.8,31.2,8.5,11.8c5.6.7,11.1,1.5,16.8,2.2h0Z"/>
    <path class="st10" d="M1012.5,1004l1-2-4.2-5.4.7,7.2c1,0,1.7.2,2.5.2Z"/>
    <path class="st10" d="M766.7,998.2l.5-2.8c-1.2.3-2.4.6-3.6.9l3.1,1.9h0Z"/>
    <polygon class="st10" points="815 996.3 814.6 993.8 812.9 995.8 815 996.3"/>
    <path class="st10" d="M938,1026.2c-11.7,6.2-23.5,12.4-35.3,18.7,12.6,2,25.2,4,37.9,6.1-.9-8.4-1.8-16.7-2.6-24.8h0Z"/>
    <path class="st10" d="M805.7,961.9l12.2-1c-2.9-4.3-5.8-8.6-8.8-13l-3.8,13.6.4.4h0Z"/>
    <path class="st10" d="M1562.6,687.3l12.2-1c-2.9-4.3-5.8-8.6-8.8-13l-3.8,13.6.4.4h0Z"/>
    <path class="st10" d="M769.7,938.6l2.8,2.4c.3-1.5.6-3,.9-4.6l-3.7,2v.2h0Z"/>
    <path class="st10" d="M907.9,1001c-.3,1-.6,2.1-.9,3.1,1.3-.3,2.6-.7,3.9-1l1.4-5-4.4,2.9Z"/>
    <path class="st10" d="M861.9,1001.3l10.2-20.4c-7.5,2.1-15.1,4.1-22.8,6.2l10.5,13.8,2.1.4Z"/>
    <path class="st10" d="M876.1,865.3l21.8-8.9c-7.3-3.5-14.6-7-22-10.6l-1.2,17.8,1.4,1.7Z"/>
    <path class="st10" d="M1028.9,859.4c-.4-.8-.8-1.6-1.2-2.4h-1.2l-.9,2.3,3.3.2h0Z"/>
    <path class="st10" d="M689.4,1008.4l29.7-29.3c-3.1-1.6-6.3-3.3-9.4-4.9l-25.8,19.2c1.9,5,3.7,10,5.5,15Z"/>
    <path class="st10" d="M1645.4,709l29.7-29.3c-3.1-1.6-6.3-3.3-9.4-4.9l-25.8,19.2c1.9,5,3.7,10,5.5,15h0Z"/>
    <path class="st10" d="M223.7,235.8l-.9,20.8c6.8-4.7,13.5-9.4,20.2-14.1l.5-18.5c-6.6,3.9-13.2,7.8-19.8,11.8Z"/>
    <path class="st10" d="M1745.3,61.6c.6,1.2,1.1,2.3,1.7,3.5l2-3.7c-1.2,0-2.5,0-3.7.2Z"/>
    <path class="st10" d="M177.3,255.9c.2.3.4.6.6.9,2.4-.6,4.8-1.3,7.2-1.9.1-4,.2-7.9.2-11.9l-6.1,1.6-1.9,11.3h0Z"/>
    <path class="st10" d="M221.3,135.6l-17.6-11.8c-1.6,10.9-3.3,21.8-4.9,32.7l12.8,10.2,9.7-31.1h0Z"/>
    <path class="st10" d="M82.4,346.8c-1,1.5-2.1,3.1-3.2,4.6l3.6,6.1,7.7-2.1-5.6-9.1-2.5.5Z"/>
    <path class="st10" d="M1582.7,250.3c-1,1.5-2.1,3.1-3.2,4.6l3.6,6.1,7.7-2.1-5.6-9.1-2.5.5h0Z"/>
    <path class="st10" d="M1568,289.2c-1,1.5-2.1,3.1-3.2,4.6l3.6,6.1,7.7-2.1-5.6-9.1-2.5.5Z"/>
    <polygon class="st10" points="147.1 236 147.4 236.5 147.4 236.1 147.1 236"/>
    <path class="st10" d="M65,271.4c5.2-3.5,10.4-7.1,15.6-10.6l-19.9-.5,1.6,9.3c.9.5,1.8,1.2,2.7,1.8h0Z"/>
    <path class="st10" d="M177.8,143.2l-12.4-16.4-15.3,23.8c3.3.4,6.7.8,10,1.2l17.7-8.6h0Z"/>
    <path class="st10" d="M1739.9,125.8l7.6,5.4,8.9-8.4c-5.5,1-11,2-16.5,3Z"/>
    <path class="st10" d="M1693.3,131.3c2.3,2.7,4.7,5.5,7,8.2l16.4-25.6-10.5-10.7-12.9,28.1Z"/>
    <path class="st10" d="M137.7,188.7c.9,5,1.8,10,2.7,14.9l38-19.4-5.2-20.5-35.5,25Z"/>
    <path class="st10" d="M96,186c.2,4.1.4,8.3.6,12.4l8.1-8.8-8.7-3.6h0Z"/>
    <path class="st10" d="M100.4,382.7l-2.8-.3-12.6,5.8c9,7.4,17.9,14.8,26.8,22.2l1.2-.6c1.5-4.4,2.9-8.7,4.4-13.1l-17-14Z"/>
    <path class="st10" d="M255.1,77.8c-8.3,4.8-16.5,9.7-24.7,14.4l-1.7,32.2c9.2,7,18.5,14.1,27.8,21.2-.5-22.6-.9-45.3-1.4-67.8Z"/>
    <path class="st10" d="M975.4,339.5c-7.9,4.6-15.7,9.2-23.5,13.7l-1.6,30.6c8.7,6.7,17.6,13.4,26.4,20.2-.5-21.5-1-43.1-1.3-64.5h0Z"/>
    <path class="st10" d="M141.8,346c-1.9-2.6-3.7-5.2-5.6-7.7l-10.8.5c-2,3.3-4.1,6.6-6.2,9.9,7.6-.9,15.1-1.8,22.6-2.7h0Z"/>
    <path class="st10" d="M1644.9,18.6c-13.2,3.7-26.5,7.5-39.8,11.2,11.5,5.9,23.1,11.7,34.7,17.6l5.1-28.8h0Z"/>
    <path class="st10" d="M234.8,182.6l-34.6,2.6-10.6,7.9,31.2,14.8,11.8-8.5c.7-5.6,1.5-11.2,2.2-16.8Z"/>
    <path class="st10" d="M260.9,169.4l-2-1-5.4,4.2,7.2-.7c0-.8,0-1.7.2-2.5h0Z"/>
    <path class="st10" d="M1795.7,143.9l.7-4.2c-1.8.4-3.6.9-5.4,1.3l4.7,2.9h0Z"/>
    <polygon class="st10" points="1623.4 199.8 1622.9 196 1620.2 199.1 1623.4 199.8"/>
    <path class="st10" d="M93.4,220.4c6.2,11.7,12.4,23.5,18.7,35.3,2-12.6,4-25.2,6.1-37.9-8.4.8-16.7,1.7-24.8,2.6Z"/>
    <path class="st10" d="M1609.4,222.1c6.2,11.7,12.4,23.5,18.7,35.3,2-12.6,4-25.2,6.1-37.9-8.5.8-16.7,1.7-24.8,2.6h0Z"/>
    <path class="st10" d="M1764.2,80.9l18.4-1.4c-4.4-6.5-8.8-13-13.2-19.6l-5.8,20.6.6.4Z"/>
    <path class="st10" d="M1725.7,41.1l4.2,3.6c.5-2.3.9-4.6,1.4-6.9l-5.6,3.1v.2Z"/>
    <path class="st10" d="M257.8,274c1,.3,2.1.6,3.1.9-.3-1.3-.7-2.6-1-3.9l-5-1.4,2.9,4.4Z"/>
    <path class="st10" d="M1678.5,214.6l15.5-30.8c-11.4,3.1-22.9,6.3-34.4,9.4l15.8,20.8,3.1.6Z"/>
    <path class="st10" d="M122.1,305.8l-8.9-21.8c-3.5,7.3-7,14.6-10.6,22l17.8,1.2,1.7-1.4h0Z"/>
    <path class="st10" d="M950,203.2l-8.5-20.7c-3.3,6.9-6.7,13.9-10.1,20.9l16.9,1.1,1.7-1.3h0Z"/>
    <path class="st10" d="M116.3,153c-.8.4-1.6.8-2.4,1.2v1.2l2.3.9.2-3.3h0Z"/>
    <path class="st10" d="M1668.5,83.7l44.9-44.3c-4.7-2.5-9.5-4.9-14.2-7.4l-38.9,28.9c2.7,7.6,5.4,15.2,8.2,22.8Z"/>
    <path class="st6" d="M1101.8,729h-246.5c-7.8,0-14.2,6.3-14.2,14.2h0c0,7.8,6.3,14.2,14.2,14.2h246.6c7.8,0,14.2-6.3,14.2-14.2h0c0-7.9-6.3-14.2-14.3-14.2h0Z"/>
    <path class="st6" d="M1823.7,85.4v261.2c0,8.3,6.7,15,15,15h0c8.3,0,15-6.7,15-15V85.4c0-8.3-6.7-15-15-15h0c-8.3,0-15,6.7-15,15Z"/>
    <g>
      <path class="st3" d="M386.1,842.8c45,20.8,64.7,74.3,43.9,119.2-20.8,45-74.3,64.7-119.2,43.9"/>
      <circle class="st10" cx="347.7" cy="923.6" r="63"/>
    </g>
    <g>
      <path class="st2" d="M1511,402.3c0,6.4-5.2,11.6-11.6,11.6s-11.6-5.2-11.6-11.6,5.2-11.6,11.6-11.6,11.6,5.2,11.6,11.6Z"/>
      <g>
        <path class="st1" d="M1543.9,332.7c20.6,9.5,29.5,34,20.1,54.5-9.5,20.6-34,29.5-54.5,20.1"/>
        <circle class="st10" cx="1526.4" cy="369.6" r="21.1"/>
      </g>
    </g>
    <path class="st2" d="M801.9,642c0-6.2,5.1-11.3,11.3-11.3s11.3,5.1,11.3,11.3-5.1,11.3-11.3,11.3-11.3-5.1-11.3-11.3Z"/>
    <g>
      <path class="st1" d="M769.9,709.7c-20-9.2-28.8-33.1-19.5-53.1,9.2-20,33.1-28.8,53.1-19.5"/>
      <circle class="st10" cx="787" cy="673.8" r="20.5"/>
    </g>
    <g>
      <path class="st3" d="M838.7,273.8c0,5.9-4.8,10.7-10.7,10.7s-10.7-4.8-10.7-10.7,4.8-10.7,10.7-10.7,10.7,4.8,10.7,10.7Z"/>
      <path class="st3" d="M889.7,272.7c0,5.9-4.8,10.7-10.7,10.7s-10.7-4.8-10.7-10.7,4.8-10.7,10.7-10.7,10.7,4.8,10.7,10.7Z"/>
      <path class="st3" d="M940.8,271.8c0,5.9-4.8,10.7-10.7,10.7s-10.7-4.8-10.7-10.7,4.8-10.7,10.7-10.7,10.7,4.7,10.7,10.7Z"/>
    </g>
    <g>
      <path class="st7" d="M2447.9,989.2c11.6,0,21,9.4,21,21s-9.4,21-21,21-21-9.4-21-21,9.4-21,21-21h0Z"/>
      <path class="st7" d="M2445.9,889.5c11.6,0,21,9.4,21,21s-9.4,21-21,21-21-9.4-21-21,9.4-21,21-21Z"/>
      <path class="st7" d="M2443.9,789.9c11.6,0,21,9.4,21,21s-9.4,21-21,21-21-9.4-21-21,9.4-21,21-21Z"/>
    </g>
    <g>
      <polygon class="st10" points="327.6 758.1 381.2 783.8 381 783.8 434.3 756.8 434.5 756.7 434.6 756.8 488 783.1 487.7 783.1 514.4 769.8 541.2 756.6 541.3 756.5 541.5 756.6 594.9 783.3 594.6 783.3 648.1 757.3 648.1 757.2 648.2 757.3 701.6 784.6 648.1 759 648.2 759 594.9 786 594.7 786.1 594.6 786 541.2 759.6 541.5 759.6 514.8 773 488 786.2 487.9 786.2 487.7 786.2 434.3 759.5 434.6 759.5 381.2 785.5 381.1 785.5 381 785.5 327.6 758.1"/>
      <polygon class="st10" points="327.6 741.5 381.2 768.3 381 768.3 434.3 740.2 434.5 740.1 434.6 740.2 488.1 767.6 487.7 767.6 514.4 753.7 541.1 740 541.3 739.9 541.5 740 594.9 767.8 594.6 767.8 648.1 740.7 648.1 740.6 648.2 740.7 701.6 769.1 648.1 742.4 648.2 742.4 594.9 770.5 594.7 770.5 594.6 770.5 541.1 743 541.5 743 514.8 756.9 488.1 770.6 487.9 770.7 487.7 770.6 434.3 742.9 434.6 742.9 381.2 770 381.1 770 381 770 327.6 741.5"/>
      <polygon class="st10" points="327.6 724.9 381.2 752.8 381 752.8 434.3 723.6 434.5 723.5 434.6 723.6 488.1 752.1 487.7 752.1 514.4 737.7 541.1 723.4 541.3 723.3 541.5 723.4 594.9 752.3 594.6 752.3 648.1 724.1 648.1 724 648.2 724.1 701.6 753.6 648.1 725.8 648.2 725.8 594.9 755 594.7 755 594.6 755 541.1 726.4 541.5 726.4 514.8 740.9 488.1 755.1 487.9 755.2 487.7 755.1 434.3 726.3 434.6 726.3 381.2 754.5 381.1 754.5 381 754.5 327.6 724.9"/>
      <polygon class="st10" points="327.6 708.3 381.2 737.3 381 737.3 434.3 707 434.5 706.9 434.6 707 488.1 736.6 487.7 736.6 514.4 721.6 541.1 706.8 541.3 706.7 541.5 706.8 594.9 736.8 594.6 736.8 648 707.5 648.1 707.4 648.2 707.5 701.6 738.1 648 709.2 648.2 709.2 594.9 739.4 594.7 739.5 594.6 739.4 541.1 709.9 541.5 709.9 514.8 724.8 488.1 739.6 487.9 739.7 487.7 739.6 434.3 709.7 434.6 709.7 381.2 738.9 381.1 739 381 738.9 327.6 708.3"/>
      <polygon class="st10" points="327.6 691.8 381.2 721.7 381 721.7 434.3 690.4 434.5 690.3 434.6 690.4 488.1 721.1 487.7 721.1 514.4 705.6 541.1 690.3 541.3 690.2 541.5 690.3 594.9 721.2 594.6 721.2 648 690.9 648.1 690.9 648.2 690.9 701.6 722.6 648 692.6 648.2 692.6 594.9 723.9 594.7 724 594.6 723.9 541.1 693.3 541.5 693.3 514.8 708.8 488.1 724.1 487.9 724.2 487.7 724.1 434.3 693.1 434.6 693.1 381.2 723.4 381.1 723.5 381 723.4 327.6 691.8"/>
    </g>
    <g>
      <polygon class="st10" points="956.8 26 942.1 15.4 942.1 15.4 927.4 26.5 927.3 26.5 927.3 26.5 912.5 15.7 912.6 15.7 905.2 21.2 897.8 26.6 897.8 26.6 897.7 26.6 883 15.6 883.1 15.6 868.2 26.3 868.2 26.3 868.2 26.3 853.5 15.1 868.2 25.6 868.2 25.6 883 14.5 883 14.4 883.1 14.5 897.8 25.4 897.7 25.4 905.1 19.9 912.5 14.4 912.5 14.4 912.6 14.4 927.4 25.4 927.3 25.4 942.1 14.7 942.1 14.7 942.1 14.7 956.8 26"/>
      <polygon class="st10" points="956.8 32.8 942.1 21.8 942.1 21.8 927.4 33.4 927.3 33.4 927.3 33.4 912.5 22.1 912.6 22.1 905.2 27.8 897.8 33.4 897.8 33.5 897.7 33.4 883 22 883.1 22 868.2 33.1 868.2 33.2 868.2 33.1 853.5 21.5 868.2 32.4 868.2 32.4 883 20.9 883 20.8 883.1 20.9 897.8 32.1 897.7 32.1 905.1 26.4 912.5 20.8 912.5 20.8 912.6 20.8 927.4 32.2 927.3 32.2 942.1 21.1 942.1 21.1 942.1 21.1 956.8 32.8"/>
      <polygon class="st10" points="956.8 39.5 942.1 28.1 942.1 28.1 927.4 40.1 927.3 40.2 927.3 40.1 912.5 28.4 912.6 28.4 905.2 34.3 897.8 40.2 897.8 40.2 897.7 40.2 883 28.3 883.1 28.3 868.2 39.9 868.2 39.9 868.2 39.9 853.5 27.9 868.2 39.3 868.2 39.3 883 27.3 883 27.2 883.1 27.3 897.8 39 897.7 39 905.1 33.1 912.5 27.2 912.5 27.2 912.6 27.2 927.4 39.1 927.3 39.1 942.1 27.5 942.1 27.5 942.1 27.5 956.8 39.5"/>
      <polygon class="st10" points="956.8 46.4 942.1 34.5 942.1 34.5 927.4 47 927.3 47 927.3 47 912.5 34.8 912.6 34.8 905.2 41 897.8 47.1 897.8 47.1 897.7 47.1 883 34.7 883.1 34.7 868.2 46.8 868.2 46.8 868.2 46.8 853.5 34.2 868.2 46 868.2 46 883 33.7 883 33.6 883.1 33.7 897.8 45.8 897.7 45.8 905.1 39.6 912.5 33.6 912.5 33.6 912.6 33.6 927.4 45.8 927.3 45.8 942.1 33.8 942.1 33.8 942.1 33.8 956.8 46.4"/>
      <polygon class="st10" points="956.8 53.2 942 40.9 942.1 40.9 927.4 53.7 927.3 53.8 927.3 53.7 912.5 41.2 912.6 41.2 905.2 47.5 897.8 53.8 897.8 53.9 897.7 53.8 883 41.1 883.1 41.1 868.2 53.5 868.2 53.6 868.2 53.5 853.5 40.6 868.2 52.9 868.2 52.9 883 40 883 39.9 883.1 40 897.8 52.6 897.7 52.6 905.1 46.2 912.5 39.9 912.5 39.9 912.6 39.9 927.4 52.7 927.3 52.7 942 40.2 942.1 40.2 942.1 40.2 956.8 53.2"/>
    </g>
    <g>
      <polyline class="st10" points="1466.6 656.8 1466.6 656.7 1466.7 656.8 1481.7 669.5 1481.6 669.5 1489.2 663.1 1496.7 656.7 1496.7 656.7 1496.8 656.7 1511.8 669.6 1511.7 669.6 1526.8 657.1 1526.8 657.1 1526.8 657.1 1541.8 670.3 1526.8 657.9 1526.8 657.9 1511.8 670.9 1511.7 670.9 1511.7 670.9 1496.7 658.2 1496.8 658.2 1489.2 664.7 1481.7 671 1481.6 671 1481.6 671 1466.6 658.1 1466.7 658.1"/>
      <polyline class="st10" points="1466.6 664.3 1466.6 664.3 1466.7 664.3 1481.7 677.5 1481.6 677.5 1489.2 670.9 1496.7 664.3 1496.7 664.2 1496.8 664.3 1511.8 677.6 1511.7 677.6 1526.8 664.6 1526.8 664.5 1526.8 664.6 1541.8 678.3 1526.8 665.4 1526.8 665.4 1511.8 678.9 1511.7 679 1511.7 678.9 1496.7 665.7 1496.8 665.7 1489.2 672.4 1481.7 679 1481.6 679.1 1481.6 679 1466.6 665.6 1466.7 665.6"/>
      <polyline class="st10" points="1466.6 671.8 1466.6 671.8 1466.7 671.8 1481.7 685.6 1481.6 685.6 1489.2 678.6 1496.7 671.7 1496.7 671.7 1496.8 671.7 1511.8 685.7 1511.7 685.7 1526.8 672 1526.8 672 1526.8 672 1541.8 686.3 1526.8 672.9 1526.8 672.9 1511.8 686.9 1511.7 687 1511.7 686.9 1496.7 673.2 1496.8 673.2 1489.2 680.2 1481.7 687.1 1481.6 687.1 1481.6 687.1 1466.6 673.1 1466.7 673.1"/>
      <polyline class="st10" points="1466.6 679.3 1466.6 679.2 1466.7 679.3 1481.7 693.6 1481.6 693.6 1489.2 686.4 1496.7 679.2 1496.7 679.2 1496.8 679.2 1511.8 693.7 1511.7 693.7 1526.8 679.5 1526.8 679.5 1526.8 679.5 1541.8 694.3 1526.8 680.3 1526.8 680.3 1511.8 695 1511.7 695 1511.7 695 1496.7 680.7 1496.8 680.7 1489.2 687.9 1481.7 695 1481.6 695 1481.6 695 1466.6 680.6 1466.7 680.6"/>
      <polyline class="st10" points="1466.6 686.8 1466.6 686.8 1466.7 686.8 1481.7 701.6 1481.6 701.6 1489.2 694.1 1496.7 686.7 1496.7 686.7 1496.8 686.7 1511.8 701.6 1511.7 701.6 1526.8 687.1 1526.8 687 1526.8 687.1 1541.8 702.3 1526.8 687.8 1526.8 687.8 1511.8 703 1511.7 703 1511.7 703 1496.7 688.1 1496.8 688.1 1489.2 695.7 1481.7 703 1481.6 703.1 1481.6 703 1466.6 688.1 1466.7 688.1"/>
    </g>
    <g>
      <polygon class="st8" points="851.6 101.9 936.4 144.2 840.3 208.2 851.6 101.9"/>
      <polygon class="st10" points="851.6 101.9 821.5 65 906.3 107.3 936.4 144.2 851.6 101.9"/>
      <polygon class="st11" points="840.3 208.2 810.2 171.3 821.5 65 851.6 101.9 840.3 208.2"/>
    </g>
    <g>
      <polygon class="st10" points="1534.3 441 1577.3 577.1 1490.1 540.7 1534.3 441"/>
      <polygon class="st0" points="1577.3 577.1 1532 597.1 1444.7 560.8 1490.1 540.7 1577.3 577.1"/>
      <polygon class="st11" points="1490.1 540.7 1444.7 560.8 1488.9 461 1534.3 441 1490.1 540.7"/>
    </g>
    <g>
      <polygon class="st11" points="2183 63.2 2249.8 225.5 2093.5 256.1 2183 63.2"/>
      <polygon class="st12" points="2183 63.2 2232.9 101.3 2299.7 263.6 2249.8 225.5 2183 63.2"/>
      <polygon class="st8" points="2249.8 225.5 2299.7 263.6 2143.5 294.3 2093.5 256.1 2249.8 225.5"/>
    </g>
    <g>
      <polygon class="st11" points="1555.8 949.2 1543.5 1030.6 1620.5 1031.2 1632.8 949.8 1555.8 949.2"/>
      <polygon class="st8" points="1593.6 920.2 1516.5 919.6 1555.8 949.2 1632.8 949.8 1593.6 920.2"/>
      <polygon class="st10" points="1543.5 1030.6 1504.2 1001 1516.5 919.6 1555.8 949.2 1543.5 1030.6"/>
    </g>
    <g>
      <polygon class="st12" points="925.9 522.8 868.1 583.6 826 558.6 883.8 497.8 925.9 522.8"/>
      <polygon class="st8" points="925.9 522.8 974.6 580 916.9 640.8 868.1 583.6 925.9 522.8"/>
      <polygon class="st10" points="868.1 583.6 916.9 640.8 874.8 615.8 826 558.6 868.1 583.6"/>
    </g>
    <g>
      <polygon class="st11" points="109.5 691.9 160.8 786.8 96.3 869.3 44.9 774.4 109.5 691.9"/>
      <polygon class="st10" points="109.5 691.9 204 696.6 255.3 791.5 160.8 786.8 109.5 691.9"/>
      <polygon class="st12" points="160.8 786.8 255.3 791.5 190.8 874 96.3 869.3 160.8 786.8"/>
    </g>
  </g>
</svg>