<?xml version="1.0" encoding="UTF-8"?>
<svg id="Layer_1" data-name="Layer 1" xmlns="http://www.w3.org/2000/svg" viewBox="0 0 1080 1080">
  <defs>
    <style>
      .cls-1 {
        fill: #111;
      }

      .cls-2 {
        fill: #f28824;
      }
    </style>
  </defs>
  <path class="cls-2" d="M417.03,884.83c-18.76,0-36.62-10.95-44.53-29.27-10.62-24.58.7-53.12,25.29-63.74,61.11-26.39,100.59-86.44,100.59-152.99v-197.67c0-105.27,62.45-200.26,159.1-242.01,24.58-10.61,53.12.7,63.74,25.29,10.62,24.58-.7,53.12-25.29,63.74-61.1,26.39-100.59,86.44-100.59,152.99v197.67c0,105.27-62.45,200.26-159.11,242.01-6.27,2.7-12.79,3.99-19.2,3.99Z"/>
  <path class="cls-1" d="M595.33,624.95v13.88c0,31.32-5.57,61.71-15.88,90.08,12.64-2.24,25.01-5.75,37.03-10.53,24.88-9.89,37.03-38.09,27.13-62.97-7.98-20.06-27.84-31.83-48.28-30.46Z"/>
  <path class="cls-1" d="M477.67,719.27c13.3-24.14,20.69-51.68,20.69-80.43v-16.87c-27.84-16.36-46.58-46.61-46.58-81.18s18.74-64.81,46.58-81.18v-18.44c0-30.83,5.39-60.76,15.39-88.74-90.11,15.33-158.94,93.95-158.94,188.36,0,81.34,51.09,150.96,122.86,178.48Z"/>
  <path class="cls-1" d="M641.12,375.1c-8.39-4.83-17.13-8.97-26.12-12.46-12.65,23.68-19.67,50.52-19.67,78.52v19.49c12.46,7.7,23.17,18.34,31.12,31.45,13.88,22.9,43.7,30.21,66.6,16.32,22.9-13.88,30.21-43.7,16.32-66.6-16.72-27.57-40.32-50.65-68.26-66.73Z"/>
  <path class="cls-2" d="M545.89,349.71c23.72,0,47.17,4.44,69.11,12.94,17.41-32.59,45.53-59.18,80.92-74.47,24.58-10.62,35.9-39.15,25.29-63.74-10.62-24.58-39.15-35.9-63.74-25.29-68.35,29.52-119.56,85.69-143.71,153.27,10.45-1.78,21.18-2.72,32.13-2.72Z"/>
  <path class="cls-2" d="M580.64,628.28c4.82-1.92,9.77-3,14.69-3.33v-164.3c-14.57-9-31.55-13.97-49.44-13.97s-33.57,4.73-47.53,12.93v162.35c13.96,8.2,30.2,12.93,47.53,12.93,12.03,0,23.72-2.22,34.75-6.61Z"/>
  <path class="cls-2" d="M545.89,731.86c-24.02,0-47.02-4.47-68.22-12.6-17.48,31.72-45.2,57.57-79.9,72.56-24.58,10.62-35.9,39.15-25.29,63.74,7.91,18.32,25.77,29.27,44.53,29.27,6.42,0,12.94-1.28,19.2-3.99,67.9-29.33,118.88-84.95,143.23-151.93-11.01,1.95-22.22,2.95-33.56,2.95Z"/>
  <path class="cls-1" d="M498.36,459.61c13.96-8.2,30.2-12.93,47.53-12.93s34.87,4.97,49.44,13.97v-19.49c0-28,7.01-54.84,19.67-78.52-21.93-8.5-45.39-12.94-69.11-12.94-10.95,0-21.68.94-32.13,2.72-10,27.99-15.39,57.92-15.39,88.74v18.44Z"/>
</svg>