<?xml version="1.0" encoding="UTF-8"?>
<svg id="Layer_1" xmlns="http://www.w3.org/2000/svg" version="1.1" viewBox="0 0 370.4 689.7">
  <!-- Generator: Adobe Illustrator 29.6.1, SVG Export Plug-In . SVG Version: 2.1.1 Build 9)  -->
  <defs>
    <style>
      .st0 {
        fill: #111;
      }

      .st1 {
        fill: #f28824;
      }
    </style>
  </defs>
  <path class="st1" d="M62.2,689.7c-18.8,0-36.6-11-44.5-29.3-10.6-24.6.7-53.1,25.3-63.7,61.1-26.4,100.6-86.4,100.6-153v-197.7c0-105.3,62.5-200.3,159.1-242,24.6-10.6,53.1.7,63.7,25.3,10.6,24.6-.7,53.1-25.3,63.7-61.1,26.4-100.6,86.4-100.6,153v197.7c0,105.3-62.5,200.3-159.1,242-6.3,2.7-12.8,4-19.2,4h0Z"/>
  <path class="st0" d="M240.5,429.8v13.9c0,31.3-5.6,61.7-15.9,90.1,12.6-2.2,25-5.8,37-10.5,24.9-9.9,37-38.1,27.1-63-8-20.1-27.8-31.8-48.3-30.5h0Z"/>
  <path class="st0" d="M122.9,524.1c13.3-24.1,20.7-51.7,20.7-80.4v-16.9c-27.8-16.4-46.6-46.6-46.6-81.2s18.7-64.8,46.6-81.2v-18.4c0-30.8,5.4-60.8,15.4-88.7C68.8,172.6,0,251.2,0,345.6s51.1,151,122.9,178.5h0Z"/>
  <path class="st0" d="M286.3,179.9c-8.4-4.8-17.1-9-26.1-12.5-12.7,23.7-19.7,50.5-19.7,78.5v19.5c12.5,7.7,23.2,18.3,31.1,31.5,13.9,22.9,43.7,30.2,66.6,16.3,22.9-13.9,30.2-43.7,16.3-66.6-16.7-27.6-40.3-50.6-68.3-66.7h0Z"/>
  <path class="st1" d="M191.1,154.5c23.7,0,47.2,4.4,69.1,12.9,17.4-32.6,45.5-59.2,80.9-74.5,24.6-10.6,35.9-39.1,25.3-63.7-10.6-24.6-39.2-35.9-63.7-25.3-68.3,29.5-119.6,85.7-143.7,153.3,10.5-1.8,21.2-2.7,32.1-2.7h0Z"/>
  <path class="st1" d="M225.8,433.1c4.8-1.9,9.8-3,14.7-3.3v-164.3c-14.6-9-31.5-14-49.4-14s-33.6,4.7-47.5,12.9v162.4c14,8.2,30.2,12.9,47.5,12.9s23.7-2.2,34.8-6.6Z"/>
  <path class="st1" d="M191.1,536.7c-24,0-47-4.5-68.2-12.6-17.5,31.7-45.2,57.6-79.9,72.6-24.6,10.6-35.9,39.2-25.3,63.7,7.9,18.3,25.8,29.3,44.5,29.3s12.9-1.3,19.2-4c67.9-29.3,118.9-85,143.2-151.9-11,2-22.2,3-33.6,3h0Z"/>
  <path class="st0" d="M143.5,264.4c14-8.2,30.2-12.9,47.5-12.9s34.9,5,49.4,14v-19.5c0-28,7-54.8,19.7-78.5-21.9-8.5-45.4-12.9-69.1-12.9s-21.7.9-32.1,2.7c-10,28-15.4,57.9-15.4,88.7v18.4h0Z"/>
</svg>