<?xml version="1.0" encoding="UTF-8"?>
<svg id="Layer_1" data-name="Layer 1" xmlns="http://www.w3.org/2000/svg" viewBox="0 0 1080 1080">
  <defs>
    <style>
      .cls-1 {
        font-family: ChangaOne, 'Changa One';
        font-size: 101.67px;
        letter-spacing: -.05em;
      }

      .cls-1, .cls-2 {
        fill: #303030;
      }

      .cls-3 {
        fill: #f28824;
      }
    </style>
  </defs>
  <path class="cls-2" d="M244.77,556.36h-29.9v40.81h-35.18v-109.93h72.12l-4.4,28.14h-32.54v14.78h29.9v26.21Z"/>
  <path class="cls-2" d="M295.25,506.58c28.14,0,42.21,9.67,42.21,29.02v61.56h-17.59l-10.03-10.03c-3.4,3.99-8.03,7.1-13.9,9.32-5.86,2.23-11.41,3.34-16.62,3.34s-9.41-.41-12.58-1.23c-3.17-.82-6.27-2.23-9.32-4.22-6.68-4.22-10.03-12.08-10.03-23.57,0-21.11,15.95-31.66,47.84-31.66h7.04v-6.33c-3.75-.23-6.86-.35-9.32-.35-13.25,0-24.62,1.58-34.12,4.75l-4.22-25.15c11.72-3.63,25.27-5.45,40.63-5.45ZM282.94,566.91v7.21h7.21c5.16,0,8.47-.59,9.94-1.76,1.46-1.17,2.2-2.7,2.2-4.57v-8.27h-7.21c-4.22,0-7.3.44-9.23,1.32-1.93.88-2.9,2.9-2.9,6.07Z"/>
  <path class="cls-2" d="M431.56,597.17h-17.59l-7.56-7.39c-5.16,6.68-14.37,10.03-27.62,10.03-7.15,0-13.31-1.35-18.47-4.05-5.16-2.7-9.09-6.39-11.78-11.08-5.04-8.79-7.56-19.29-7.56-31.49,0-14.89,3.28-26.15,9.85-33.77,2.46-2.93,5.86-5.36,10.2-7.3,4.34-1.93,9.38-2.9,15.13-2.9h20.23v-26.38l35.18-2.64v116.97ZM378.8,539.65v34.48h5.45c3.98,0,6.95-.38,8.88-1.14,1.93-.76,3.02-2.49,3.25-5.19v-35.53h-5.45c-4.22,0-7.3.44-9.23,1.32-1.94.88-2.9,2.9-2.9,6.07Z"/>
  <path class="cls-2" d="M475.54,480.2v91.82c3.75.7,6.62,1.12,8.62,1.23l-1.58,25.86c-15.01,0-24.92-.88-29.73-2.64-5.98-2.23-9.67-5.04-11.08-8.44-.94-2.11-1.41-4.57-1.41-7.39v-97.8l35.18-2.64Z"/>
  <path class="cls-2" d="M527.6,506.58c28.14,0,42.21,9.67,42.21,29.02v61.56h-17.59l-10.03-10.03c-3.4,3.99-8.03,7.1-13.9,9.32-5.86,2.23-11.41,3.34-16.62,3.34s-9.41-.41-12.58-1.23c-3.17-.82-6.27-2.23-9.32-4.22-6.68-4.22-10.03-12.08-10.03-23.57,0-21.11,15.95-31.66,47.84-31.66h7.04v-6.33c-3.75-.23-6.86-.35-9.32-.35-13.25,0-24.62,1.58-34.12,4.75l-4.22-25.15c11.72-3.63,25.27-5.45,40.63-5.45ZM515.29,566.91v7.21h7.21c5.16,0,8.47-.59,9.94-1.76,1.46-1.17,2.2-2.7,2.2-4.57v-8.27h-7.21c-4.22,0-7.3.44-9.23,1.32-1.93.88-2.9,2.9-2.9,6.07Z"/>
  <path class="cls-2" d="M594.44,509.22l8.79,8.79c10.91-7.62,22.63-11.43,35.18-11.43,8.21,0,14.66,1.79,19.35,5.36,4.69,3.58,7.04,8.53,7.04,14.86v70.36h-35.18v-61.56h-5.45c-3.99,0-7.01.44-9.06,1.32-2.05.88-3.08,2.67-3.08,5.36v54.88h-35.18v-87.95h17.59Z"/>
  <path class="cls-3" d="M707.01,567.26v6.16c3.52.35,7.04.53,10.55.53,10.91,0,21.93-1.76,33.07-5.28l4.22,25.86c-13.13,3.52-26.15,5.28-39.05,5.28-16.42,0-28.29-3.84-35.62-11.52-7.33-7.68-10.99-19.38-10.99-35.09s3.66-27.41,10.99-35.09c7.33-7.68,19.17-11.52,35.53-11.52s27.64,2.23,33.86,6.68c6.21,4.46,9.32,12.78,9.32,24.98,0,10.32-3.72,17.74-11.17,22.25-7.45,4.52-21.02,6.77-40.72,6.77ZM707.01,539.65v7.21h7.21c4.22,0,7.3-.44,9.23-1.32s2.9-2.9,2.9-6.07v-7.21h-7.21c-4.22,0-7.3.44-9.23,1.32-1.93.88-2.9,2.9-2.9,6.07Z"/>
  <path class="cls-3" d="M828.37,556.36h-29.9v40.81h-35.18v-109.93h72.12l-4.4,28.14h-32.54v14.78h29.9v26.21Z"/>
  <path class="cls-3" d="M898.2,570.78l2.11,25.33c-6.1,2.46-13.96,3.69-23.57,3.69-16.42,0-28.29-3.84-35.62-11.52-7.33-7.68-10.99-19.38-10.99-35.09s3.66-27.41,10.99-35.09c7.33-7.68,19.2-11.52,35.62-11.52,10.2,0,18.06,1.23,23.57,3.69l-4.22,23.92c-6.22-1.29-11.14-1.93-14.78-1.93-8.91,0-13.37,3.11-13.37,9.32v31.48c3.4.7,7.77,1.06,13.1,1.06s11.05-1.11,17.15-3.34Z"/>
  <text class="cls-1" transform="translate(907.73 597.17)"><tspan x="0" y="0">.</tspan></text>
</svg>