<?xml version="1.0" encoding="UTF-8"?>
<svg id="Layer_1" xmlns="http://www.w3.org/2000/svg" version="1.1" viewBox="0 0 770.6 136.3">
  <!-- Generator: Adobe Illustrator 29.5.1, SVG Export Plug-In . SVG Version: 2.1.0 Build 141)  -->
  <defs>
    <style>
      .st0 {
        fill: #f28824;
      }

      .st1 {
        fill: #303030;
      }
    </style>
  </defs>
  <path class="st1" d="M76.3,84.6h-29.9v40.8H11.3V15.5h72.1l-4.4,28.1h-32.5v14.8h29.9v26.2h0Z"/>
  <path class="st1" d="M126.8,34.8c28.1,0,42.2,9.7,42.2,29v61.6h-17.6l-10-10c-3.4,4-8,7.1-13.9,9.3-5.9,2.2-11.4,3.3-16.6,3.3s-9.4-.4-12.6-1.2c-3.2-.8-6.3-2.2-9.3-4.2-6.7-4.2-10-12.1-10-23.6,0-21.1,16-31.7,47.8-31.7h7v-6.3c-3.8-.2-6.9-.3-9.3-.3-13.2,0-24.6,1.6-34.1,4.8l-4.2-25.2c11.7-3.6,25.3-5.5,40.6-5.5h0ZM114.5,95.2v7.2h7.2c5.2,0,8.5-.6,9.9-1.8,1.5-1.2,2.2-2.7,2.2-4.6v-8.3h-7.2c-4.2,0-7.3.4-9.2,1.3-1.9.9-2.9,2.9-2.9,6.1h0Z"/>
  <path class="st1" d="M263.1,125.4h-17.6l-7.6-7.4c-5.2,6.7-14.4,10-27.6,10s-13.3-1.3-18.5-4-9.1-6.4-11.8-11.1c-5-8.8-7.6-19.3-7.6-31.5s3.3-26.2,9.9-33.8c2.5-2.9,5.9-5.4,10.2-7.3,4.3-1.9,9.4-2.9,15.1-2.9h20.2V11.1l35.2-2.6v117h0ZM210.4,67.9v34.5h5.5c4,0,7-.4,8.9-1.1s3-2.5,3.2-5.2v-35.5h-5.5c-4.2,0-7.3.4-9.2,1.3-1.9.9-2.9,2.9-2.9,6.1h0Z"/>
  <path class="st1" d="M307.1,8.5v91.8c3.8.7,6.6,1.1,8.6,1.2l-1.6,25.9c-15,0-24.9-.9-29.7-2.6-6-2.2-9.7-5-11.1-8.4-.9-2.1-1.4-4.6-1.4-7.4V11.1l35.2-2.6h0Z"/>
  <path class="st1" d="M359.2,34.8c28.1,0,42.2,9.7,42.2,29v61.6h-17.6l-10-10c-3.4,4-8,7.1-13.9,9.3-5.9,2.2-11.4,3.3-16.6,3.3s-9.4-.4-12.6-1.2c-3.2-.8-6.3-2.2-9.3-4.2-6.7-4.2-10-12.1-10-23.6,0-21.1,16-31.7,47.8-31.7h7v-6.3c-3.8-.2-6.9-.3-9.3-.3-13.2,0-24.6,1.6-34.1,4.8l-4.2-25.2c11.7-3.6,25.3-5.5,40.6-5.5h0ZM346.9,95.2v7.2h7.2c5.2,0,8.5-.6,9.9-1.8,1.5-1.2,2.2-2.7,2.2-4.6v-8.3h-7.2c-4.2,0-7.3.4-9.2,1.3s-2.9,2.9-2.9,6.1h0Z"/>
  <path class="st1" d="M426,37.5l8.8,8.8c10.9-7.6,22.6-11.4,35.2-11.4s14.7,1.8,19.3,5.4c4.7,3.6,7,8.5,7,14.9v70.4h-35.2v-61.6h-5.5c-4,0-7,.4-9.1,1.3s-3.1,2.7-3.1,5.4v54.9h-35.2V37.5h17.6Z"/>
  <path class="st0" d="M538.6,95.5v6.2c3.5.3,7,.5,10.5.5,10.9,0,21.9-1.8,33.1-5.3l4.2,25.9c-13.1,3.5-26.2,5.3-39,5.3s-28.3-3.8-35.6-11.5-11-19.4-11-35.1,3.7-27.4,11-35.1c7.3-7.7,19.2-11.5,35.5-11.5s27.6,2.2,33.9,6.7c6.2,4.5,9.3,12.8,9.3,25s-3.7,17.7-11.2,22.2c-7.5,4.5-21,6.8-40.7,6.8h0ZM538.6,67.9v7.2h7.2c4.2,0,7.3-.4,9.2-1.3s2.9-2.9,2.9-6.1v-7.2h-7.2c-4.2,0-7.3.4-9.2,1.3s-2.9,2.9-2.9,6.1Z"/>
  <path class="st0" d="M659.9,84.6h-29.9v40.8h-35.2V15.5h72.1l-4.4,28.1h-32.5v14.8h29.9v26.2h0Z"/>
  <path class="st0" d="M729.8,99l2.1,25.3c-6.1,2.5-14,3.7-23.6,3.7-16.4,0-28.3-3.8-35.6-11.5s-11-19.4-11-35.1,3.7-27.4,11-35.1c7.3-7.7,19.2-11.5,35.6-11.5s18.1,1.2,23.6,3.7l-4.2,23.9c-6.2-1.3-11.1-1.9-14.8-1.9-8.9,0-13.4,3.1-13.4,9.3v31.5c3.4.7,7.8,1.1,13.1,1.1s11-1.1,17.2-3.3h0Z"/>
  <path class="st1" d="M744.6,123.7c-1.5-1.6-2.2-4.3-2.2-8.3s.7-6.8,2.2-8.4c1.5-1.6,4.4-2.4,8.8-2.4s7.3.8,8.8,2.4c1.5,1.6,2.2,4.4,2.2,8.4s-.7,6.8-2.2,8.3c-1.5,1.6-4.4,2.3-8.8,2.3s-7.3-.8-8.8-2.3Z"/>
</svg>